<svg width="73" height="53" viewBox="0 0 73 53" fill="none" xmlns="http://www.w3.org/2000/svg">
<path d="M3.44885 18.8615L3.19783 18.8605V19.1115V43.7106V43.9486L3.43559 43.9603L4.10018 43.9929L4.10016 43.9932L4.11265 43.9932L10.1962 43.9877V43.9879L10.2051 43.9875L10.7845 43.9663L11.0253 43.9575L11.0253 43.7165L11.0251 19.1414L11.0251 18.8924L10.7762 18.8914L3.44885 18.8615ZM63.5751 49.6999H63.9747L63.7999 49.3405C63.6874 49.1091 63.6165 48.8492 63.5307 48.5349C63.4972 48.4119 63.4614 48.2807 63.42 48.1396C63.2772 47.6535 63.0776 47.0998 62.6822 46.5086C61.1385 44.2009 57.8985 42.6069 54.8357 42.6069H39.7559C39.5857 42.6069 39.4376 42.6826 39.3165 42.7721C39.1944 42.8624 39.0762 42.9843 38.9622 43.1155C38.8506 43.2439 38.7337 43.3919 38.6136 43.5441L38.6028 43.5579C38.4775 43.7167 38.3466 43.882 38.2057 44.0468C37.6368 44.7119 36.9478 45.3118 35.9859 45.3118C35.7416 45.3118 35.4518 45.214 35.1282 45.0313C34.8077 44.8505 34.4746 44.5982 34.1489 44.3169C33.6783 43.9104 33.2443 43.4629 32.8937 43.1015C32.7551 42.9587 32.6296 42.8293 32.5201 42.7212L32.3445 42.8992L32.52 42.7212L29.3498 39.5938C29.1554 39.402 28.8468 39.1137 28.4732 38.765C28.3145 38.6168 28.1441 38.4577 27.9658 38.2904C27.3649 37.7266 26.6681 37.0645 26.0062 36.3968C25.3433 35.7281 24.7202 35.0587 24.2645 34.48C24.0364 34.1904 23.8546 33.9291 23.7311 33.706C23.6033 33.4753 23.5552 33.3158 23.5552 33.221C23.5552 32.5131 24.2144 31.7805 25.1901 31.7805C25.2309 31.7805 25.3087 31.797 25.4323 31.8545C25.5518 31.9101 25.6956 31.9954 25.8627 32.1104C26.1969 32.3403 26.6033 32.6749 27.0629 33.0876C27.9811 33.9123 29.0891 35.0286 30.2183 36.1921C30.6195 36.6056 31.0236 37.0251 31.4223 37.4392C32.1428 38.1873 32.8459 38.9174 33.4831 39.5602C34.4665 40.5523 35.3181 41.363 35.8481 41.7131L35.9859 41.8042L36.1237 41.7131C36.5382 41.4393 36.864 40.9711 37.0856 40.4341C37.3087 39.8934 37.4354 39.2609 37.4354 38.6306C37.4354 37.7378 37.3985 37.1951 37.2407 36.6596C37.0896 36.1465 36.8296 35.6496 36.4173 34.8617L36.3814 34.793C35.9655 33.9978 35.1428 33.0981 34.2822 32.2444C33.8799 31.8453 33.4636 31.4508 33.0688 31.0768L32.9771 30.9899C32.5542 30.589 32.1606 30.2144 31.8345 29.8801L31.6555 30.0547L31.8345 29.8801C31.6421 29.6829 31.5329 29.5403 31.4216 29.3922L31.4039 29.3686C31.2952 29.2238 31.1789 29.0689 30.9867 28.8639C27.9095 25.5818 26.1722 24.1253 23.9463 23.5211C22.8394 23.2206 21.6243 23.134 20.0861 23.1203C19.3149 23.1135 18.4483 23.1252 17.466 23.1385C16.5026 23.1515 15.4279 23.1661 14.223 23.1661H13.973V23.4161V39.814V40.0586L14.2175 40.064C16.1581 40.1066 18.258 41.2336 19.5333 42.0845L19.5332 42.0847L19.5409 42.0894L26.3932 46.3128C26.3937 46.3131 26.3941 46.3134 26.3946 46.3137C26.6839 46.4979 26.9759 46.6885 27.2708 46.8809C28.1618 47.4624 29.0789 48.0609 30.025 48.5527C31.29 49.2103 32.6334 49.6925 34.0914 49.7069C40.5553 49.7705 47.0483 49.7472 53.5326 49.7239C56.8841 49.7119 60.2334 49.6999 63.5751 49.6999ZM40.4234 39.2677L40.4141 39.4856L40.6287 39.5244C41.194 39.6266 42.1437 39.6716 43.2849 39.6867C44.4322 39.7019 45.7923 39.6869 47.1886 39.6645C47.6717 39.6568 48.1589 39.6481 48.6431 39.6396C50.9649 39.5985 53.2188 39.5586 54.6271 39.6219C55.3772 39.6556 55.9595 39.7785 56.4948 39.8914L56.5381 39.9005C57.0816 40.0151 57.5952 40.1207 58.1674 40.0832C59.3213 40.0075 60.6477 39.3571 63.061 37.3046C73.4451 28.4725 71.4436 10.975 58.5707 5.074C47.2891 -0.0975732 36.4523 6.11686 32.6532 13.6457C31.5061 15.9191 30.7576 18.0435 30.4957 20.8766C30.4811 21.0343 30.4668 21.1846 30.4532 21.3279C30.3635 22.2713 30.3025 22.9127 30.371 23.4203C30.4551 24.0445 30.7312 24.4676 31.2812 25.0139C31.2817 25.0144 31.2822 25.0149 31.2828 25.0154L35.9002 29.754L35.9002 29.754C35.9871 29.8431 36.0733 29.9314 36.159 30.0191C37.3557 31.2438 38.4312 32.3446 39.2084 33.689C40.0347 35.1182 40.5274 36.8323 40.4234 39.2677ZM27.1308 21.6091L27.4964 21.8V21.3874C27.4964 13.3924 33.6311 5.09227 41.2418 2.03102C49.8311 -1.42383 58.6414 0.267866 65.2541 6.06342L65.4189 5.87541L65.2541 6.06343C66.5535 7.20216 67.5413 8.17846 68.545 9.65872C70.0846 11.9295 71.1327 13.9002 71.798 16.0529C72.4634 18.2059 72.75 20.5545 72.75 23.5851C72.75 30.1985 68.6167 37.1008 63.1876 40.8893L63.3306 41.0943L63.1876 40.8893C63.0856 40.9604 62.9939 41.0187 62.9068 41.0731C62.8952 41.0804 62.8835 41.0877 62.8719 41.095C62.7981 41.1411 62.7245 41.187 62.6548 41.2348C62.4862 41.3503 62.3328 41.481 62.1749 41.6936L61.9546 41.9903L62.3119 42.0844C62.5304 42.1419 62.803 42.2965 63.1087 42.5334C63.4103 42.7671 63.7268 43.0673 64.0321 43.3946C64.6443 44.0509 65.1927 44.796 65.47 45.2901C66.4335 47.0064 67.0879 48.9022 66.875 50.3427C66.7704 51.05 66.4584 51.6398 65.8721 52.0585C65.2789 52.4821 64.3778 52.75 63.061 52.75H35.9859C33.1396 52.75 31.2916 52.5238 29.4225 51.5981L19.6683 45.6882C18.9702 45.233 18.2571 44.8065 17.5238 44.368C17.4274 44.3104 17.3307 44.2526 17.2336 44.1944L17.1051 44.4089L17.2335 44.1944C17.1991 44.1738 17.1646 44.1531 17.1299 44.1323C16.341 43.6585 15.4803 43.1417 14.2285 43.1141L13.973 43.1085V43.3641C13.973 43.6209 13.9788 43.8585 13.9844 44.0845C13.9914 44.3694 13.998 44.6359 13.9918 44.8992C13.981 45.358 13.93 45.7323 13.7896 46.0318C13.529 46.5875 12.8967 47.0023 11.1385 47.0023H3.08451C2.34014 47.0023 1.61347 46.9004 1.08223 46.641C0.819423 46.5127 0.613235 46.35 0.472749 46.1504C0.333942 45.9532 0.25 45.7069 0.25 45.3927V17.4993C0.25 16.5461 1.11719 15.8897 2.22767 15.8897C4.14963 15.8897 5.77222 15.867 7.13158 15.848C7.96207 15.8363 8.69432 15.8261 9.33657 15.8232C11.051 15.8156 12.1254 15.8613 12.8092 16.0552C13.1439 16.15 13.3657 16.2756 13.5204 16.4328C13.6741 16.589 13.78 16.7952 13.8503 17.0843C13.9216 17.3771 13.9536 17.7429 13.9665 18.2074C13.976 18.5514 13.975 18.9391 13.9738 19.3815C13.9734 19.5362 13.973 19.6975 13.973 19.866V20.116H14.223C14.9488 20.116 15.6675 20.1064 16.3779 20.0969C18.0006 20.0751 19.58 20.0539 21.1029 20.1495C23.2859 20.2866 25.3184 20.663 27.1308 21.6091Z" fill="#494949" stroke="white" stroke-width="0.5"/>
<path d="M48.2242 8.84073L48.4725 8.86951L48.2242 8.84073C48.1837 9.18997 48.1829 9.66068 48.1911 10.1216C48.1943 10.3052 48.199 10.4869 48.2035 10.6612C48.2081 10.8406 48.2125 11.0123 48.2149 11.1705C47.2331 11.2264 46.0695 11.2064 44.949 11.1826C44.8711 11.1809 44.7933 11.1792 44.7158 11.1776C43.5984 11.1534 42.5362 11.1304 41.7901 11.1868L41.809 11.436L41.7901 11.1868C41.463 11.2115 41.1972 11.2704 40.9907 11.3855C40.7733 11.5067 40.6383 11.6808 40.5615 11.8959C40.4891 12.0988 40.4701 12.3339 40.4656 12.581C40.463 12.7201 40.4652 12.8797 40.4675 13.0499C40.4692 13.1762 40.471 13.3083 40.471 13.4421C40.471 13.916 40.5449 14.2816 40.7143 14.5506C40.891 14.8313 41.15 14.9735 41.4414 15.0413C41.7217 15.1065 42.0473 15.1063 42.3812 15.0969C42.4601 15.0946 42.54 15.0919 42.621 15.089C42.8198 15.0821 43.0256 15.0749 43.241 15.0751L43.2614 28.6429C42.9086 28.6532 42.6036 28.6469 42.3346 28.6413C42.2564 28.6397 42.1813 28.6381 42.1089 28.637C41.7494 28.6317 41.42 28.6357 41.1601 28.7408C40.8654 28.8598 40.6898 29.0916 40.5928 29.439C40.5007 29.7685 40.471 30.2283 40.471 30.8543C40.471 31.3651 40.561 31.7875 40.6943 32.1506L40.7338 32.258L40.8408 32.2984C41.1982 32.4332 41.7467 32.5047 42.3679 32.5438C42.9975 32.5834 43.7312 32.591 44.4756 32.5859C45.0389 32.582 45.6059 32.5709 46.1414 32.5604C46.9287 32.5451 47.6478 32.5311 48.1862 32.5431C48.2566 33.045 48.2483 33.4841 48.227 33.8695C48.2222 33.9572 48.2164 34.0459 48.2107 34.1326C48.2028 34.2544 48.1951 34.3723 48.1906 34.4784C48.1828 34.6647 48.1828 34.8464 48.2088 35.014C48.2352 35.1842 48.2898 35.3492 48.3973 35.4955C48.5056 35.6428 48.6552 35.7545 48.8451 35.8373C49.212 35.9974 49.7594 36.0621 50.5511 36.0621C51.1195 36.0621 51.5318 35.9389 51.8034 35.6707C52.0739 35.4035 52.1551 35.0404 52.1762 34.6816C52.1913 34.4252 52.1764 34.1355 52.1615 33.8476C52.1558 33.7383 52.1502 33.6292 52.1462 33.5223C52.1338 33.1872 52.1358 32.8545 52.1895 32.5341C54.0414 32.5277 55.4684 32.429 56.6311 32.0235C57.8534 31.5971 58.7668 30.8382 59.5862 29.5474C60.7558 27.7048 60.8506 25.3525 59.8273 23.3358C59.5271 22.7442 59.339 22.4788 59.1645 22.2853C59.1049 22.2194 59.0545 22.1686 59.0066 22.1205C58.9383 22.0519 58.8752 21.9885 58.7984 21.8935C58.8809 21.7818 58.9646 21.673 59.0484 21.5639C59.5406 20.9234 60.0376 20.2766 60.3408 19.0264L60.0978 18.9675L60.3408 19.0264C61.2563 15.2517 58.7357 11.199 53.9783 11.199H52.1429C52.1439 10.9148 52.1467 10.6525 52.1492 10.412C52.1531 10.0356 52.1565 9.71256 52.1518 9.44179C52.1433 8.95335 52.1098 8.56625 51.9756 8.28348C51.9045 8.13361 51.8049 8.01136 51.6698 7.91795C51.5379 7.82667 51.3837 7.77098 51.2142 7.73507C50.8843 7.66521 50.4381 7.65997 49.8657 7.65997C49.6298 7.65997 49.4179 7.66291 49.2353 7.68362C49.0526 7.70435 48.8789 7.74476 48.7279 7.8327C48.4033 8.02166 48.2789 8.36888 48.2242 8.84073ZM43.291 39.1868C42.2892 39.1735 41.4677 39.1371 40.9304 39.0654C40.9993 36.6586 40.4921 34.9114 39.6408 33.4387C38.8308 32.0377 37.7125 30.8936 36.5265 29.6803C36.4373 29.589 36.3477 29.4973 36.2578 29.4051C36.2578 29.4051 36.2578 29.405 36.2578 29.405L31.6374 24.6635L31.6374 24.6635L31.6345 24.6606C31.1228 24.1526 30.9295 23.8251 30.866 23.3535C30.8058 22.9073 30.8601 22.3333 30.951 21.3713C30.9643 21.2303 30.9784 21.081 30.993 20.9226L30.7441 20.8996L30.993 20.9226C31.2479 18.1656 31.9733 16.1021 33.0991 13.871C36.7965 6.54366 47.362 0.486115 58.3618 5.52853C70.8937 11.2732 72.8493 28.3224 62.7365 36.9237C60.3304 38.9702 59.1126 39.5201 58.1341 39.5843C57.64 39.6167 57.1904 39.5271 56.6407 39.4113L56.5914 39.4009C56.0567 39.288 55.4404 39.1579 54.649 39.1224C53.2234 39.0584 50.9482 39.0987 48.6269 39.1398C48.1442 39.1483 47.6595 39.1569 47.1801 39.1646C45.7841 39.187 44.4304 39.2018 43.291 39.1868Z" fill="white" stroke="white" stroke-width="0.5"/>
<path d="M41.8292 11.6859C42.5497 11.6315 43.5886 11.6539 44.7191 11.6783C44.7923 11.6799 44.8659 11.6814 44.9398 11.683C46.1459 11.7087 47.4311 11.7309 48.4864 11.6546L48.7184 11.6379V11.4053C48.7184 11.1838 48.7115 10.9165 48.7044 10.6378C48.7 10.4646 48.6954 10.287 48.6924 10.1133C48.6842 9.65049 48.6861 9.21079 48.7223 8.89885C48.773 8.46138 48.8718 8.32883 48.9808 8.26535C49.0466 8.22707 49.1423 8.19809 49.293 8.18098C49.4439 8.16386 49.6296 8.16052 49.867 8.16052C50.4564 8.16052 50.8442 8.16807 51.1119 8.22477C51.2412 8.25215 51.3267 8.28819 51.3868 8.32972C51.4437 8.36911 51.4884 8.42075 51.5253 8.49845C51.6071 8.67085 51.6446 8.95372 51.6533 9.45104C51.6579 9.71879 51.6546 10.0286 51.6507 10.3956C51.6474 10.7037 51.6437 11.052 51.6439 11.4497L51.644 11.6996H51.8939H53.9797C58.3877 11.6996 60.7016 15.4237 59.8563 18.9091C59.5797 20.0492 59.1515 20.608 58.6689 21.2378C58.544 21.4008 58.4154 21.5686 58.2849 21.7524L58.1819 21.8975L58.2853 22.0424C58.4405 22.2597 58.5703 22.3908 58.6785 22.5C58.7203 22.5423 58.759 22.5813 58.7946 22.6208C58.9284 22.7691 59.0932 22.992 59.3828 23.5626C60.3293 25.428 60.2369 27.592 59.1654 29.28C58.3962 30.4918 57.567 31.1685 56.4677 31.5519C55.3512 31.9414 53.9395 32.035 51.9866 32.035H51.7896L51.7435 32.2265C51.636 32.6731 51.6326 33.1276 51.6479 33.5414C51.6526 33.6677 51.6589 33.7882 51.6648 33.9035C51.6791 34.1792 51.6918 34.4258 51.6785 34.6528C51.6598 34.9696 51.5916 35.1791 51.4534 35.3156C51.3162 35.451 51.0607 35.5626 50.5525 35.5626C49.7664 35.5626 49.3106 35.4949 49.0464 35.3796C48.9209 35.3248 48.848 35.2631 48.8016 35.2C48.7545 35.1359 48.7222 35.0535 48.7043 34.9379C48.6859 34.8198 48.6841 34.6774 48.6916 34.5C48.6959 34.3963 48.7028 34.291 48.7104 34.1766C48.716 34.09 48.7221 33.9981 48.7276 33.8976C48.7526 33.4447 48.7619 32.8968 48.6482 32.2564L48.613 32.0583L48.412 32.0503C47.8454 32.0278 47.0129 32.0439 46.107 32.0615C45.5748 32.0718 45.0173 32.0827 44.4736 32.0864C43.7327 32.0915 43.0128 32.0838 42.4007 32.0453C41.8536 32.0109 41.4148 31.9529 41.1264 31.8671C41.0336 31.5814 40.9724 31.2512 40.9724 30.8549C40.9724 30.2292 41.004 29.831 41.0757 29.574C41.1425 29.3349 41.2333 29.2515 41.3488 29.2049C41.499 29.1442 41.7236 29.1319 42.1029 29.1375C42.1713 29.1385 42.2436 29.1401 42.3199 29.1417C42.6485 29.1485 43.0502 29.1569 43.5254 29.1335L43.7635 29.1218L43.7632 28.8835L43.742 14.8289L43.7416 14.5865L43.4993 14.5794C43.1768 14.5698 42.8699 14.5806 42.5954 14.5902C42.517 14.5929 42.4412 14.5956 42.3684 14.5976C42.031 14.6072 41.7656 14.6036 41.556 14.5549C41.3577 14.5087 41.2281 14.4267 41.1388 14.2848C41.0421 14.1312 40.9724 13.8759 40.9724 13.4426C40.9724 13.2906 40.9704 13.1544 40.9687 13.0288C40.9664 12.8691 40.9643 12.7266 40.9668 12.5908C40.9713 12.3529 40.9903 12.1866 41.0338 12.0645C41.073 11.9547 41.132 11.8805 41.2356 11.8227C41.3501 11.7589 41.5324 11.7083 41.8292 11.6859ZM41.8292 11.6859L41.8103 11.4366L41.8292 11.6859ZM46.9325 23.3001H46.6825L46.6825 23.5501L46.6811 28.9067L46.6811 29.1568H46.9311H53.8084C54.7371 29.1568 55.5541 28.9233 56.147 28.4362C56.7462 27.944 57.089 27.2151 57.103 26.2871C57.1175 25.3181 56.7985 24.5583 56.1997 24.0453C55.6074 23.538 54.774 23.3001 53.8084 23.3001H46.9325ZM46.9573 14.5661H46.7084L46.7073 14.815L46.6835 20.1824L46.6823 20.4335H46.9335C47.349 20.4335 47.7636 20.4335 48.1775 20.4334C49.8925 20.4332 51.5947 20.433 53.297 20.4365C54.3396 20.4388 55.2875 20.285 55.9807 19.8318C56.6942 19.3653 57.1007 18.6068 57.1014 17.5C57.1021 16.3899 56.6965 15.631 55.9825 15.165C55.2891 14.7126 54.3404 14.5607 53.2968 14.5632C51.6656 14.5671 50.0344 14.5667 48.4029 14.5664C47.9211 14.5662 47.4392 14.5661 46.9573 14.5661Z" fill="#911919" stroke="white" stroke-width="0.5"/>
<path d="M10.1918 43.488L4.11898 43.4935L3.69836 43.4729V19.3628L10.5257 19.3907L10.5259 43.4758L10.1918 43.488Z" fill="white" stroke="white" stroke-width="0.5"/>
<path d="M53.8067 28.6569H47.1795L47.1807 23.8003H53.8067C54.6975 23.8003 55.3999 24.0203 55.8727 24.4252C56.3389 24.8245 56.614 25.4313 56.6013 26.2798C56.5893 27.0797 56.2997 27.6625 55.8279 28.05C55.3499 28.4427 54.6576 28.6569 53.8067 28.6569Z" fill="white" stroke="white" stroke-width="0.5"/>
<path d="M53.2955 19.9365H53.2955C51.5927 19.9329 49.8898 19.9331 48.1747 19.9334C47.8443 19.9334 47.5134 19.9334 47.1821 19.9335L47.2037 15.0661C47.6024 15.0661 48.0011 15.0662 48.3998 15.0663C50.0315 15.0667 51.6635 15.067 53.2955 15.0631C54.3078 15.0607 55.1368 15.2118 55.7067 15.5837C56.2561 15.9421 56.5995 16.5289 56.5989 17.4996C56.5983 18.4667 56.2544 19.0538 55.7046 19.4132C55.1344 19.786 54.306 19.9386 53.2955 19.9365Z" fill="white" stroke="white" stroke-width="0.5"/>
<path d="M63.2052 49.2004C59.9824 49.2013 56.7547 49.2128 53.5257 49.2244C47.0436 49.2477 40.5568 49.271 34.096 49.2074C32.7468 49.1941 31.4834 48.748 30.2552 48.1095C29.3332 47.6302 28.446 47.0513 27.5603 46.4733C27.2609 46.278 26.9618 46.0827 26.6615 45.8915L26.6584 45.8896L19.8067 41.6666C18.5667 40.8397 16.4872 39.7031 14.4727 39.5751V23.6663C15.5948 23.6645 16.5874 23.651 17.4802 23.6388C18.4525 23.6256 19.3067 23.6139 20.0814 23.6208C21.609 23.6344 22.7718 23.7209 23.815 24.0041C25.8892 24.5671 27.5405 25.9201 30.6216 29.2064C30.7949 29.3911 30.8974 29.5277 31.0049 29.6709C31.0104 29.6782 31.0159 29.6856 31.0215 29.693C31.1379 29.848 31.262 30.0101 31.4763 30.2298C31.8104 30.5722 32.2111 30.9536 32.6329 31.3533C32.663 31.3819 32.6933 31.4106 32.7237 31.4394C33.1193 31.8142 33.5317 32.205 33.9297 32.5998C34.7932 33.4564 35.5624 34.307 35.9381 35.0253L36.1596 34.9094L35.9381 35.0253L35.9506 35.0492C36.3849 35.8794 36.6237 36.3359 36.7608 36.8014C36.897 37.2637 36.9351 37.7452 36.9351 38.6311C36.9351 39.1976 36.8205 39.7652 36.6231 40.2439C36.4537 40.6545 36.23 40.984 35.9807 41.1962C35.4917 40.8348 34.739 40.1178 33.8379 39.2087C33.203 38.5682 32.5047 37.8431 31.7861 37.097C31.3868 36.6823 30.9812 36.2611 30.5768 35.8444C29.4477 34.6809 28.329 33.5535 27.3966 32.7161C26.9309 32.2979 26.506 31.9469 26.1459 31.699C25.9659 31.5751 25.7968 31.4734 25.6431 31.4017C25.4934 31.332 25.3376 31.281 25.1898 31.281C23.9652 31.281 23.0548 32.211 23.0548 33.2215C23.0548 33.448 23.1558 33.7004 23.2934 33.9487C23.4351 34.2047 23.6349 34.4896 23.8713 34.7899C24.3447 35.3909 24.9834 36.0761 25.6508 36.7493C26.3191 37.4235 27.0211 38.0905 27.6234 38.6555C27.806 38.8268 27.9789 38.9883 28.1388 39.1376C28.5088 39.4831 28.8091 39.7635 28.9984 39.9502L32.1686 43.0776C32.1686 43.0776 32.1686 43.0776 32.1686 43.0776C32.2662 43.174 32.3836 43.295 32.5164 43.4318C32.8702 43.7965 33.3331 44.2736 33.8218 44.6957C34.1603 44.9881 34.5214 45.2637 34.8821 45.4673C35.2396 45.669 35.6179 45.8122 35.9856 45.8122C37.1797 45.8122 37.9974 45.0597 38.5853 44.3723C38.7336 44.199 38.8701 44.0263 38.9949 43.8681L39.0016 43.8597C39.1252 43.7031 39.2355 43.5633 39.3392 43.4441C39.4455 43.3217 39.5354 43.2323 39.6134 43.1747C39.6924 43.1163 39.7365 43.1074 39.7555 43.1074H54.8354C57.7549 43.1074 60.8278 44.6366 62.2663 46.7871C62.6227 47.3199 62.8047 47.8204 62.9399 48.2809C62.9734 48.3948 63.0047 48.5099 63.0359 48.6242C63.0896 48.8214 63.1427 49.0165 63.2052 49.2004Z" fill="white" stroke="white" stroke-width="0.5"/>
</svg>
